/* XPM */
static char *formel_x[] = {
/* columns rows colors chars-per-pixel */
"32 32 233 2 ",
"   c #010101",
".  c #0C0102",
"X  c #050905",
"o  c #020109",
"O  c #0A030B",
"+  c #060A09",
"@  c #0A0A0A",
"#  c #150000",
"$  c #1B0100",
"%  c #16000A",
"&  c #130C0E",
"*  c #12150D",
"=  c #030212",
"-  c #0C0A15",
";  c #130011",
":  c #1A021B",
">  c #0C1613",
",  c #141413",
"<  c #141A12",
"1  c #1D1B1D",
"2  c #230202",
"3  c #2B0103",
"4  c #2F070A",
"5  c #230A0C",
"6  c #2B090A",
"7  c #340101",
"8  c #3C0000",
"9  c #34070D",
"0  c #3E0A08",
"q  c #330E18",
"w  c #271617",
"e  c #3A151B",
"r  c #3A191C",
"t  c #0C0024",
"y  c #190029",
"u  c #130035",
"i  c #1B0039",
"p  c #2A0527",
"a  c #2A0D2C",
"s  c #360025",
"d  c #36062F",
"f  c #221A29",
"g  c #330931",
"h  c #350B38",
"j  c #3B0A3F",
"k  c #002B3A",
"l  c #232323",
"z  c #2B2C2B",
"x  c #3C2B26",
"c  c #302A2E",
"v  c #3A2D2D",
"b  c #37213A",
"n  c #2D3333",
"m  c #333434",
"M  c #3E3237",
"N  c #343835",
"B  c #343839",
"V  c #3B3A3A",
"C  c #450200",
"Z  c #4C0301",
"A  c #4B0508",
"S  c #540502",
"D  c #580605",
"F  c #590905",
"G  c #5C000D",
"H  c #560B08",
"J  c #4C0511",
"K  c #480916",
"L  c #430D1A",
"P  c #720601",
"I  c #7C0403",
"U  c #720A04",
"Y  c #790903",
"T  c #700508",
"R  c #6C1006",
"E  c #7A1008",
"W  c #6E0010",
"Q  c #760015",
"!  c #601716",
"~  c #46113D",
"^  c #441A3C",
"/  c #41292D",
"(  c #4C372F",
")  c #4B3434",
"_  c #43383A",
"`  c #493C3E",
"'  c #353741",
"]  c #373840",
"[  c #3C3C46",
"{  c #411442",
"}  c #481B4A",
"|  c #731243",
" . c #53244C",
".. c #423740",
"X. c #4F3941",
"o. c #623C5C",
"O. c #681967",
"+. c #6B316B",
"@. c #713A65",
"#. c #0C4A45",
"$. c #06494F",
"%. c #0E4957",
"&. c #3F4241",
"*. c #444445",
"=. c #484746",
"-. c #4E4648",
";. c #474E4F",
":. c #4A4A4A",
">. c #51454C",
",. c #535452",
"<. c #7D4C4F",
"1. c #625063",
"2. c #655569",
"3. c #655969",
"4. c #6C5A6B",
"5. c #764A77",
"6. c #5E6262",
"7. c #636364",
"8. c #6B6B6B",
"9. c #787678",
"0. c #7E7E7E",
"q. c #8E0119",
"w. c #911416",
"e. c #BE0A0F",
"r. c #A91D1E",
"t. c #B71413",
"y. c #9E082D",
"u. c #831629",
"i. c #AD1C23",
"p. c #CD0B33",
"a. c #C01B38",
"s. c #D0333A",
"d. c #9A1759",
"f. c #AC3A42",
"g. c #A53448",
"h. c #810B6F",
"j. c #96156D",
"k. c #811475",
"l. c #9B3965",
"z. c #872676",
"x. c #872C75",
"c. c #C82542",
"v. c #CA3A42",
"b. c #944B5E",
"n. c #8C676D",
"m. c #87706E",
"M. c #916674",
"N. c #77817C",
"B. c #7D837E",
"V. c #254D9A",
"C. c #3257B9",
"Z. c #305BBD",
"A. c #2367AE",
"S. c #556BB7",
"D. c #6374A8",
"F. c #8D2C84",
"G. c #843882",
"H. c #9B3B8C",
"J. c #943095",
"K. c #974686",
"L. c #965E8E",
"P. c #9D598E",
"I. c #9A4C99",
"U. c #9F5C9E",
"Y. c #877382",
"T. c #9A7387",
"R. c #9F40A0",
"E. c #A241A0",
"W. c #B150B0",
"Q. c #AA70AA",
"!. c #B478B3",
"~. c #6E8997",
"^. c #758492",
"/. c #3E92DE",
"(. c #3FACC2",
"). c #3B9CEA",
"_. c #5EC8E1",
"`. c #66F8FF",
"'. c #6DFDFF",
"]. c #828282",
"[. c #858987",
"{. c #858C88",
"}. c #8A8A8A",
"|. c #948586",
" X c #8F8991",
".X c #928F90",
"XX c #929496",
"oX c #9C9C9C",
"OX c #B7848E",
"+X c #AB8C97",
"@X c #AC9494",
"#X c #B5989C",
"$X c #BC989B",
"%X c #8687A0",
"&X c #9A98A0",
"*X c #9E9EA9",
"=X c #A59DA0",
"-X c #A297AF",
";X c #A4A4A4",
":X c #A9A2A0",
">X c #ABABAC",
",X c #BCA7BC",
"<X c #B3B3B2",
"1X c #BBB9BB",
"2X c #D987A6",
"3X c #C99FA4",
"4X c #C3A9BF",
"5X c #A0C3BF",
"6X c #9FACDD",
"7X c #8BBCD1",
"8X c #8BABE8",
"9X c #D1B1CA",
"0X c #E1BED0",
"qX c #9ED1DC",
"wX c #BBD2E2",
"eX c #BAD4F1",
"rX c #CCC3C0",
"tX c #CEC9CE",
"yX c #C8D1CC",
"uX c #DAC6D5",
"iX c #D5D6D6",
"pX c #D4DBD9",
"aX c #DADCDD",
"sX c #E6C1D4",
"dX c #CFC6ED",
"fX c #C1CFF8",
"gX c #FFCDE6",
"hX c #FFD9F2",
"jX c #E1E6FF",
"kX c #F1EBFF",
"lX c #F2FCF7",
"zX c #FEFFFF",
"xX c None",
/* pixels */
"xXxXxXxXxXxXxXxXxXxXxXxXxXxXxXxXxXxXxXxXxXxXxXxXxXxXxXxXxXxXxXxX",
"xXxXxXxXxXxXxXxXxXxXxXxXxXxXxXxXxXxXxXxXxXxXxXxX            xXxX",
"xXxXxXxXxXxXxXxXxXxXxXxXxXxXxXxXxXxXxXxXxXxXxXxXxXX 9.1Xc   xXxX",
"xXxXxXxXxX                            X   xXxX  O O <XzX*.  X xX",
"xXxXxXxXxXxXxXxXxXxXxXX B.yXN   xXxXxXxXxXxXxX.  .G.U.Q.5.a o xX",
"xXxXxXxXxXxXxXxXxXxXxX  <XzX*.  xXxXxXxXxXxXxX% { O.I.xX} a ; xX",
"xXxXxXxXxXxXxXxXxX    [.lXzXaXc   xXxXxXxXxXxXxXxXxXxXxXxXxXxXxX",
"xXxXxXxX  o + & xXxXxX3.2.1.4.xXxXxXxX-     xXxXxXxXxXxXxXxXxXxX",
"xXxXxXxXX     + xXxX+.: : ; % s xXxXO O o   xXxXxXxXxXxXxXxXxXxX",
"xXxXxXxX  X    X!.W.R.J.E.F.H.x.K.P.4X..  X xXxXxXxXxXxXxXxXxXxX",
"xXxXxXxX. @ . X.L.j { h g g d ~ ^ @.4.f o o xXxXxXxXxXxXxXxXxXxX",
"xXxXxXxX. # #   xXxXxXxXxXxXxXxXxXxX  o = o xXxXxXxXxXxXxXxXxXxX",
"xXxXxXxXxXxXxXxXxXxXxXxXxXxXxXxXxXxXxXxXxXxXxXxXxXxXxXxXxXxXxXxX",
"xXxXxXxXxXxXxXxXxXxXxXxXxXxXxXxXxXxXxXxXxXxXxXxXxXxXxXxXxXxXxXxX",
"xXxXxXxXxXxXxXxXxXxXxXxXxXxXxXxXxXxXxXxXxXxXxXxXxXxXxXxXxXxXxXxX",
"xXxXxXxX& . # # # # $ $ $ # # . . . # $ 2 2 2 # # 5 $   . xXxXxX",
"xXxXxX# 3 L K J A A H D S S C 8 8 C S F F Z Z C 0 4 m.rXv xXxXxX",
"xXxXxX# +Xb.G u.T U I I I I Y Y P Y P Y Y Y P R ! $XzX|.xXxXxXxX",
"xXxXxX  _ r 2 4 3 3 8 8 8 8 8 7 7 7 8 8 8 C 7 2 2 ` -.xXxXxXxXxX",
"xXxXxXxXxXxXxXxXxXxXxX5 e 9 n.#X@X) 6 r xXxXxXxXxXxXxXxXxXxXxXxX",
"xXxXxXxXxXxXxXxXxXxXxXxXq M.sXuXtX<X( xXxXxXxXxXxXxXxXxXxXxXxXxX",
"xX    @ + X + + X       Y.9XdXfXeXwX:Xx     o - -     @   + xXxX",
"xX                      -XkXS.Z.C.8XjXM                     xXxX",
"xX    8.;XoXoXoX;X.X;X1 %XD.A.)./.V.6XB ,.;XXX*X&X;XoXoXl   xXxX",
"xX  7.7.B *.m V =.z >X' ^.7X_.'.`.(.qXN [.N.n ;.B V *.N m.z xXxX",
"xX  oX=.  @     +   oX[ ^.~.k %.$.#.5XN Y.*.  +     @   >X&.xXxX",
"xX  }.=.  1 + @ * * ;X,Xo.p y i u t b T.0X:.X < @ * l + oX*.xXxX",
"xX  XX=.  @         |.hXl.d.j.h.O.z.| 2XgX/         +   *X*.xXxX",
"xX:.>XN ].aX<XpXz ].OXg.c.p.q.W q.y.a.v.f.3Xv ].aX<XiXz ].[.xXxX",
"xXxXxX@ _ 8.,.6.> V xXxXs.e.i.w.w.i.t.xXxX<.w V 7.,.7., xXxXxXxX",
"xXxXxX              xXxXxXxXxXxXxXxXxXxXxX              xXxXxXxX",
"xXxXxXxXxXxXxXxXxXxXxXxXxXxXxXxXxXxXxXxXxXxXxXxXxXxXxXxXxXxXxXxX"
};
